<svg width="31" height="31" viewBox="0 0 31 31" fill="none" xmlns="http://www.w3.org/2000/svg">
<path d="M5.17969 5.67725C5.17969 5.0142 5.44308 4.37832 5.91192 3.90948C6.38076 3.44064 7.01665 3.17725 7.67969 3.17725H17.6797C18.0112 3.17732 18.3291 3.30906 18.5634 3.5435L24.8134 9.7935C25.0479 10.0279 25.1796 10.3458 25.1797 10.6772V25.6772C25.1797 26.3403 24.9163 26.9762 24.4475 27.445C23.9786 27.9139 23.3427 28.1772 22.6797 28.1772H7.67969C7.01665 28.1772 6.38076 27.9139 5.91192 27.445C5.44308 26.9762 5.17969 26.3403 5.17969 25.6772V5.67725ZM16.9998 5.49951H7.49976V25.9995H22.9998V11.4995H19.7147H16.9998C16.6682 11.4995 17.1421 11.4995 16.9998 11.4995C16.9998 11.3218 16.9998 12.2588 16.9998 11.9272V5.49951Z" fill="white"/>
<path d="M9.78125 16.8765H19.9813M9.78125 21.6765H19.9813" stroke="white" stroke-width="2.2"/>
</svg>
